<svg xmlns="http://www.w3.org/2000/svg" viewBox="0 0 295.95 287.52"><defs><style>.cls-1{fill:#a2c0bd;}.cls-2{fill:#729a9e;}.cls-3,.cls-8{fill:#fff;}.cls-4{fill:#2a3c4d;}.cls-5{fill:#536f8c;}.cls-6{fill:#4e7075;}.cls-7{fill:#704c3f;}.cls-10,.cls-8{stroke:#000;}.cls-10,.cls-12,.cls-8,.cls-9{stroke-linecap:round;}.cls-8{stroke-linejoin:round;}.cls-10,.cls-12,.cls-15,.cls-9{fill:none;stroke-miterlimit:10;}.cls-9{stroke:#fff;}.cls-11{fill:#471d1b;}.cls-12{stroke:#422115;stroke-width:0.75px;}.cls-13{fill:#5c2d1e;}.cls-14{fill:#0f0606;}.cls-15{stroke:#a2c0bd;stroke-width:4px;}</style></defs><title>Asset 2</title><g id="Layer_2" data-name="Layer 2"><g id="OBJECTS"><polygon class="cls-1" points="271.14 68.86 289.53 194.28 295.95 194.28 277.56 68.86 271.14 68.86"/><polygon class="cls-1" points="240.66 114.57 259.04 239.99 265.46 239.99 247.08 114.57 240.66 114.57"/><polygon class="cls-1" points="91.39 68.86 73 194.28 66.58 194.28 84.97 68.86 91.39 68.86"/><polygon class="cls-1" points="61.82 114.57 43.43 239.99 37.01 239.99 55.4 114.57 61.82 114.57"/><polygon class="cls-1" points="247.08 108.93 54.08 108.93 54.08 66.61 278.02 66.61 247.08 108.93"/><rect class="cls-2" x="54.08" y="108.93" width="193" height="5.64"/><polygon class="cls-2" points="247.08 114.57 247.08 108.93 278.02 66.61 278.02 72.56 247.08 114.57"/><path class="cls-3" d="M172.91,86.15s6.34-.28,7.49,5.65-20.27,15.9-24.29,11.87S158.34,87,172.91,86.15Z"/><rect class="cls-4" x="132.84" width="113.07" height="76.18"/><rect class="cls-5" x="136.81" y="3.7" width="105.12" height="68.77"/><rect class="cls-3" x="223.73" y="6.07" width="18.21" height="62.79"/><path d="M237.73,14.44H228.2a1.38,1.38,0,0,1-1.38-1.38h0a1.38,1.38,0,0,1,1.38-1.37h9.53a1.38,1.38,0,0,1,1.38,1.37h0A1.38,1.38,0,0,1,237.73,14.44Z"/><path d="M237.73,22.51H228.2a1.37,1.37,0,0,1-1.38-1.37h0a1.37,1.37,0,0,1,1.38-1.37h9.53a1.37,1.37,0,0,1,1.38,1.37h0A1.37,1.37,0,0,1,237.73,22.51Z"/><path d="M237.73,30.59H228.2a1.38,1.38,0,0,1-1.38-1.37h0a1.38,1.38,0,0,1,1.38-1.38h9.53a1.38,1.38,0,0,1,1.38,1.38h0A1.38,1.38,0,0,1,237.73,30.59Z"/><path d="M237.73,38.67H228.2a1.38,1.38,0,0,1-1.38-1.38h0a1.37,1.37,0,0,1,1.38-1.37h9.53a1.37,1.37,0,0,1,1.38,1.37h0A1.38,1.38,0,0,1,237.73,38.67Z"/><path d="M237.73,54.82H228.2a1.38,1.38,0,0,1-1.38-1.38h0a1.38,1.38,0,0,1,1.38-1.37h9.53a1.38,1.38,0,0,1,1.38,1.37h0A1.38,1.38,0,0,1,237.73,54.82Z"/><rect x="226.82" y="60.15" width="12.28" height="2.75" rx="1.37"/><path d="M237.73,46.74H228.2a1.37,1.37,0,0,1-1.38-1.37h0A1.38,1.38,0,0,1,228.2,44h9.53a1.38,1.38,0,0,1,1.38,1.38h0A1.37,1.37,0,0,1,237.73,46.74Z"/><rect class="cls-2" x="146.57" y="11.46" width="21.11" height="17.53"/><rect class="cls-1" x="172.57" y="11.46" width="21.11" height="17.53"/><rect class="cls-2" x="198.56" y="11.46" width="21.11" height="17.53"/><rect class="cls-3" x="145.98" y="33.59" width="73.69" height="30.63"/><path class="cls-6" d="M213,44H152.91a1.52,1.52,0,0,1-1.53-1.52h0a1.52,1.52,0,0,1,1.53-1.53H213a1.53,1.53,0,0,1,1.53,1.53h0A1.53,1.53,0,0,1,213,44Z"/><path class="cls-6" d="M213,49.78H152.91a1.52,1.52,0,0,1-1.53-1.53h0a1.53,1.53,0,0,1,1.53-1.53H213a1.54,1.54,0,0,1,1.53,1.53h0A1.53,1.53,0,0,1,213,49.78Z"/><path class="cls-6" d="M213,55.57H152.91A1.53,1.53,0,0,1,151.38,54h0a1.52,1.52,0,0,1,1.53-1.53H213A1.53,1.53,0,0,1,214.57,54h0A1.54,1.54,0,0,1,213,55.57Z"/><polygon class="cls-4" points="177.9 76.18 182.82 84.41 195.71 84.41 191.03 76.18 177.9 76.18"/><path class="cls-4" d="M173.13,88.93h34.25s-6.42-4.52-11.67-4.52H182.82A21.71,21.71,0,0,0,173.13,88.93Z"/><polygon class="cls-7" points="83.1 242.5 82.64 253.81 106.66 253.06 107.84 242.48 83.1 242.5"/><path d="M79.41,166.23s5.75,1.88,5.55,10.1-9.75,69.42-9.75,69.42,36.72,2.49,46.09-3.25c0,0,5.34-59.86,5.34-69.23S106.56,157.27,79.41,166.23Z"/><path d="M77.42,231.39l44.94-.95L121.3,242.5s-4.21,5.35-46.09,3.25Z"/><path class="cls-8" d="M78.8,252.09s30-.58,31.51.3-.14,8.74-.14,8.74,22.91,5.46,26,8.5,2.95,5.1,1.55,6.35-54.92.94-57.28-.33-2.87-3-3-8.26S78.8,252.09,78.8,252.09Z"/><path class="cls-8" d="M41.93,57.57c-7,2.84-15.1,8.79-16.06,25.43s0,58.71,0,58.71,48-1.72,63.3-6.5c0,0-.84-31.71-1.53-38.25-.74-7-1.34-26-9-35.95C73.15,53.86,49.26,54.61,41.93,57.57Z"/><polygon class="cls-7" points="152.47 237.72 156.68 248.24 178.29 237.72 175.04 227.58 152.47 237.72"/><path d="M88.83,123.74s28.61,1.34,37.81,1.91,17,2.29,24.5,18.17,38.63,81.47,38.63,81.47l-44,17.21s-20.27-63.88-22.57-69.61-9.37-8.42-18.93-8S67.56,167,67.56,167,76.26,131.59,88.83,123.74Z"/><polygon points="142.22 231.32 184.63 214.47 189.77 225.29 145.78 242.5 142.22 231.32"/><path class="cls-8" d="M152.47,248.24s27.16-12.82,28.88-12.63,3.44,8,3.44,8,23.14-4.4,27.16-2.87,4.78,3.44,4,5.16-49.73,23.33-52.4,23.14-3.83-1.53-6.12-6.31S152.47,248.24,152.47,248.24Z"/><path class="cls-9" d="M74.75,145.1s44.75-.7,51.89,2.43,32.43,77.1,32.43,77.1"/><path class="cls-7" d="M143.86,95.32s1.92,1.07,5.36-2,16.64-8.61,21.8-7.65,3.06,2.29,2.11,3.25-6.7,4.59-9.76,8.8-4.2,5.55-8.79,6.22-6.21,0-6.21,0S143.08,100.37,143.86,95.32Z"/><path class="cls-8" d="M65.75,55.89s12.71,1.68,19.6,5.69,25.43,33.47,25.43,33.47l31.37-1.72s8.6,10.13,8,20.46c0,0-37.87,3.83-48,3.64S87.45,105.19,81,96.2,68.15,70.09,65.75,55.89Z"/><line class="cls-10" x1="110.78" y1="95.05" x2="110.78" y2="103.95"/><path d="M135.08,93.72s6.79,10,7.12,20.85l8-.78a29.46,29.46,0,0,0-8-20.46Z"/><path class="cls-7" d="M65.75,47.25V57.57H50.54L51.86,50S58,45.15,65.75,47.25Z"/><path class="cls-7" d="M63.16,11.86c3.6,1.07,6.89,5.16,9.18,10.71s4.4,15.49-1,20.84-18.17,9.37-27.16,4.4-8.42-18.17-5.55-26.58S50.35,8,63.16,11.86Z"/><path class="cls-11" d="M71.39,26.87a1.44,1.44,0,1,1-2.87,0,1.44,1.44,0,0,1,2.87,0Z"/><path class="cls-12" d="M71.39,35s1.3,2,3.14,1.76"/><path class="cls-13" d="M69.28,36.47a6.18,6.18,0,1,1-6.17-6.17A6.18,6.18,0,0,1,69.28,36.47Z"/><path class="cls-14" d="M69.28,12.62S66,20.08,63.35,23V58.33l-34.8,1.53S27.21,49,32,45.14c0,0-2.68-16.45,2.29-27.16s14-12.62,19.89-12.81S67.18,8.22,69.28,12.62Z"/><path class="cls-7" d="M58.38,24.48V40.93s-8.41.57-8.6-8.23S58.38,24.48,58.38,24.48Z"/><circle class="cls-4" cx="27.11" cy="280.47" r="7.06"/><rect class="cls-4" x="64.73" y="167.83" width="4.85" height="96.52"/><polygon class="cls-4" points="24.69 274.04 64.73 260.55 67.15 264.34 28.69 277.83 24.69 274.04"/><polygon class="cls-4" points="110.02 274.04 69.98 260.55 67.56 264.34 106.02 277.83 110.02 274.04"/><circle class="cls-4" cx="107.6" cy="280.47" r="7.06"/><path class="cls-5" d="M48.83,72.58C35.44,73,21.32,74.83,15.2,86.66s-9.06,40.71,2.32,62.41,40.83,24.41,61.12,18.76,24.86-21.29,26.76-28.66-5.69-21.69-16.23-30.45S82.85,90.07,78,83.53,58.4,72.27,48.83,72.58Z"/><path class="cls-15" d="M2.2,120.73S-3.11,169.37,40.63,176"/></g></g></svg>