<svg xmlns="http://www.w3.org/2000/svg" viewBox="0 0 349.1 350.79"><defs><style>.cls-1,.cls-8{fill:#fff;}.cls-2{fill:#263238;}.cls-3{fill:#455a64;}.cls-4{opacity:0.6;}.cls-5{fill:#403027;}.cls-6{fill:#2b201a;}.cls-7{fill:none;}.cls-8{stroke:#000;stroke-miterlimit:10;}</style></defs><title>Asset 1</title><g id="Layer_2" data-name="Layer 2"><g id="Window"><rect class="cls-1" x="70.55" y="0.52" width="278.14" height="224.44"/><path class="cls-2" d="M348.7,225s0-.36,0-1.05,0-1.72,0-3.07c0-2.7,0-6.7,0-11.93,0-10.45-.06-25.78-.1-45.36-.05-39.1-.12-95.16-.21-163l.4.43L70.58,1h0L71,.52C71,81.21,71,157.63,71,225l-.44-.47,200.76.23,57,.13,15.13.05,3.9,0h1l.34,0h-.32l-1,0-3.85,0-15,.06-56.93.12-201,.24h-.43V225c0-67.33,0-143.75-.05-224.44V0h.51L348.7.09h.4V.52c-.09,68-.16,124.13-.21,163.3-.05,19.54-.08,34.84-.1,45.26,0,5.19,0,9.17-.05,11.85,0,1.33,0,2.34,0,3S348.7,225,348.7,225Z"/><path class="cls-2" d="M347.31,28a3.25,3.25,0,0,1-.71.06l-2.06.05-7.93.09c-6.89.06-16.86.08-29.17.08-24.64,0-58.67-.2-96.25-.52l-96.26-.83-29.17-.25-7.93-.1-2.06-.06a3.68,3.68,0,0,1-.7-.05,3.09,3.09,0,0,1,.7-.06l2.06,0,7.93-.09c6.89-.06,16.86-.09,29.18-.09,24.63,0,58.66.2,96.26.53l96.24.83,29.17.24,7.93.11,2.06.05A5.54,5.54,0,0,1,347.31,28Z"/><path class="cls-2" d="M88.72,11.92a3.28,3.28,0,1,1-6.55,0,3.28,3.28,0,1,1,6.55,0Z"/><path class="cls-2" d="M101.83,11.92a3.28,3.28,0,1,1-6.55,0,3.28,3.28,0,1,1,6.55,0Z"/><ellipse class="cls-2" cx="111.65" cy="11.92" rx="3.28" ry="3.52"/></g><g id="Search_bar" data-name="Search bar"><path class="cls-1" d="M306.77,133.05H133.1a20.53,20.53,0,0,1-20.53-20.53h0A20.54,20.54,0,0,1,133.1,92H306.77a20.54,20.54,0,0,1,20.53,20.54h0A20.53,20.53,0,0,1,306.77,133.05Z"/><path class="cls-2" d="M306.77,133.05,308,133a9.22,9.22,0,0,0,1.5-.15,14.67,14.67,0,0,0,2.05-.4l1.22-.31c.42-.14.85-.31,1.31-.48l.7-.26.71-.35a13.87,13.87,0,0,0,1.47-.77A20.13,20.13,0,0,0,322.9,125a16.48,16.48,0,0,0,1.31-1.91,16.78,16.78,0,0,0,1.13-2.15,21.75,21.75,0,0,0,.92-2.38l.33-1.28.17-.65.1-.67.21-1.37q0-.69.06-1.41l0-.71,0-.72c0-.49,0-1-.09-1.47a22.05,22.05,0,0,0-1.58-5.92,20.79,20.79,0,0,0-9.07-9.81,20,20,0,0,0-7-2.23c-2.52-.28-5.17-.14-7.86-.17l-168.39.07a22.78,22.78,0,0,0-6,.9,22.21,22.21,0,0,0-5.42,2.61,21.61,21.61,0,0,0-4.38,4,20.88,20.88,0,0,0-3,5.11,21.31,21.31,0,0,0-1.4,5.71,21.94,21.94,0,0,0,.3,5.84,20.31,20.31,0,0,0,5.29,10.12,20.24,20.24,0,0,0,9.73,5.61,21.58,21.58,0,0,0,2.76.5c.94,0,1.86.13,2.81.11h27.5l75.71.06,51,.08,13.88.05,3.61,0,1.23,0-1.23,0-3.61,0-13.88.05-51,.08-75.71.06h-27.5c-.94,0-1.91-.07-2.86-.11a24.67,24.67,0,0,1-2.83-.51,20.79,20.79,0,0,1-10-5.74,21.52,21.52,0,0,1-3.46-4.78,22,22,0,0,1-2-5.6,22.59,22.59,0,0,1-.3-6,20.8,20.8,0,0,1,4.51-11.11,22.47,22.47,0,0,1,4.5-4.15,20.68,20.68,0,0,1,11.69-3.6l168.39.08c2.69,0,5.32-.1,7.9.19a20.48,20.48,0,0,1,7.15,2.29,21,21,0,0,1,9.17,10,22,22,0,0,1,1.59,6c.05.5.05,1,.08,1.49l0,.73,0,.72c0,.48-.05,1-.07,1.43s-.14.92-.22,1.38l-.1.68-.17.66c-.12.43-.23.87-.34,1.29a24.62,24.62,0,0,1-.94,2.41,17,17,0,0,1-1.16,2.16,15.9,15.9,0,0,1-1.33,1.92,20.09,20.09,0,0,1-6,5.23,12.45,12.45,0,0,1-1.49.77l-.72.34-.7.26c-.47.16-.9.34-1.33.47l-1.22.31a19,19,0,0,1-2.06.37A10.46,10.46,0,0,1,308,133Z"/><circle class="cls-1" cx="298.89" cy="111.39" r="9.14" transform="translate(8.78 243.97) rotate(-45)"/><path class="cls-2" d="M298.89,121a9.64,9.64,0,1,1,9.63-9.64A9.65,9.65,0,0,1,298.89,121Zm0-18.27a8.64,8.64,0,1,0,8.63,8.63A8.65,8.65,0,0,0,298.89,102.76Z"/><rect class="cls-2" x="309.62" y="114.66" width="1" height="9.15" transform="translate(43.73 317.8) rotate(-57.73)"/></g><g id="Text"><path class="cls-2" d="M141.41,115.84l.75-1.67a5.66,5.66,0,0,0,3.17,1c1.31,0,1.85-.44,1.85-1,0-1.79-5.58-.56-5.58-4.12,0-1.63,1.32-3,4-3a6.44,6.44,0,0,1,3.33.85l-.68,1.69a5.4,5.4,0,0,0-2.66-.76c-1.32,0-1.82.5-1.82,1.1,0,1.77,5.57.55,5.57,4.07,0,1.6-1.33,3-4.07,3A6.8,6.8,0,0,1,141.41,115.84Z"/><path class="cls-2" d="M157.93,113.71h-5.58a2,2,0,0,0,2.11,1.48,2.48,2.48,0,0,0,1.85-.72l1.14,1.24a3.85,3.85,0,0,1-3,1.19c-2.55,0-4.21-1.6-4.21-3.8a3.76,3.76,0,0,1,3.94-3.79,3.64,3.64,0,0,1,3.83,3.82C158,113.3,157.94,113.53,157.93,113.71Zm-5.6-1.25H156a1.84,1.84,0,0,0-3.63,0Z"/><path class="cls-2" d="M165.71,112.58v4.21h-2v-.92a2.42,2.42,0,0,1-2.25,1c-1.72,0-2.75-1-2.75-2.23s.92-2.21,3.16-2.21h1.7c0-.92-.55-1.45-1.7-1.45a3.55,3.55,0,0,0-2.12.68L159,110.2a5.63,5.63,0,0,1,3.18-.89C164.41,109.31,165.71,110.35,165.71,112.58Zm-2.14,1.88v-.75h-1.46c-1,0-1.32.37-1.32.86s.45.89,1.21.89A1.57,1.57,0,0,0,163.57,114.46Z"/><path class="cls-2" d="M172.22,109.31v2c-.18,0-.32,0-.48,0a1.82,1.82,0,0,0-2,2.06v3.48h-2.14v-7.37h2v1A3,3,0,0,1,172.22,109.31Z"/><path class="cls-2" d="M172.87,113.1a3.81,3.81,0,0,1,4.11-3.79,3.37,3.37,0,0,1,3.3,1.88l-1.65.89a1.85,1.85,0,0,0-1.66-1,2,2,0,0,0,0,4.09,1.83,1.83,0,0,0,1.66-1l1.65.91a3.42,3.42,0,0,1-3.3,1.86A3.81,3.81,0,0,1,172.87,113.1Z"/><path class="cls-2" d="M189,112.57v4.22h-2.14V112.9c0-1.19-.55-1.74-1.5-1.74s-1.76.63-1.76,2v3.65h-2.14V106.62h2.14v3.57a3.2,3.2,0,0,1,2.34-.88C187.68,109.31,189,110.32,189,112.57Z"/><path class="cls-2" d="M190.4,115.56a1.33,1.33,0,0,1,2.66,0,1.33,1.33,0,1,1-2.66,0Z"/><path class="cls-2" d="M194,115.56a1.33,1.33,0,0,1,2.66,0,1.33,1.33,0,1,1-2.66,0Z"/><path class="cls-2" d="M197.58,115.56a1.33,1.33,0,0,1,2.66,0,1.33,1.33,0,1,1-2.66,0Z"/></g><g id="Character"><path class="cls-3" d="M91.42,319.52l-.61,29.08,38.28.9c-.13-3.46-19.75-10.87-19.75-10.87l1.2-18.61Z"/><g class="cls-4"><path class="cls-1" d="M97.54,336.79a1.4,1.4,0,1,0,.61,2.72,1.55,1.55,0,0,0,1.18-1.76,1.57,1.57,0,0,0-1.93-.92"/></g><g class="cls-4"><path class="cls-1" d="M90.81,348.6l.19-2.93,36.63,2s1.68.74,1.46,1.87Z"/></g><path class="cls-2" d="M110,338.46c0,.18-.94.24-1.88.78s-1.44,1.28-1.61,1.21.13-1.09,1.28-1.73S110,338.3,110,338.46Z"/><path class="cls-2" d="M113.94,340.13c0,.17-.78.45-1.44,1.18s-.86,1.52-1,1.51-.28-1,.55-1.91S113.94,340,113.94,340.13Z"/><path class="cls-2" d="M116.1,344.72c-.17,0-.41-.85.09-1.81s1.39-1.32,1.47-1.17-.48.65-.88,1.44S116.28,344.71,116.1,344.72Z"/><path class="cls-2" d="M109.74,334.19c-.08.16-.94-.1-2-.06s-1.89.34-2,.18.72-.76,2-.79S109.83,334.06,109.74,334.19Z"/><path class="cls-2" d="M108.94,329.88a3.89,3.89,0,0,1-1.92-.06,8.66,8.66,0,0,1-2-.63,9.38,9.38,0,0,1-1.08-.57,2.37,2.37,0,0,1-.57-.44.73.73,0,0,1-.06-.94,1,1,0,0,1,.83-.39,2.79,2.79,0,0,1,.71.11,7,7,0,0,1,1.19.42,6.82,6.82,0,0,1,1.73,1.13c.87.8,1.16,1.47,1.09,1.5s-.5-.51-1.39-1.17a7.91,7.91,0,0,0-1.68-.95,7.31,7.31,0,0,0-1.09-.35c-.41-.11-.75-.12-.86,0s0,.09,0,.21a1.88,1.88,0,0,0,.41.32c.34.21.67.4,1,.57a10.88,10.88,0,0,0,1.84.71A13,13,0,0,1,108.94,329.88Z"/><path class="cls-2" d="M108.69,330.13a2.81,2.81,0,0,1-.46-1.77,5.5,5.5,0,0,1,.31-2,6,6,0,0,1,.52-1.09,1.59,1.59,0,0,1,1.25-.89.92.92,0,0,1,.79.53,2.24,2.24,0,0,1,.18.67,4.08,4.08,0,0,1-.9,3.07c-.78.92-1.56,1.11-1.58,1.05s.6-.42,1.2-1.3a4.1,4.1,0,0,0,.65-1.69,3.37,3.37,0,0,0,0-1.05c0-.38-.19-.7-.34-.66s-.52.27-.69.57a6.11,6.11,0,0,0-.92,2.77C108.61,329.44,108.79,330.1,108.69,330.13Z"/><path class="cls-3" d="M62.41,321.93l-3.65,28.86-38-4.72c.64-3.4,21.13-7.85,21.13-7.85l1.54-18.59Z"/><g class="cls-4"><path class="cls-1" d="M53.83,338.12a1.47,1.47,0,0,1,.87,1.81,1.51,1.51,0,0,1-1.87.8,1.56,1.56,0,0,1-.91-1.92,1.59,1.59,0,0,1,2-.63"/></g><g class="cls-4"><path class="cls-1" d="M58.76,350.79l.25-2.93-36.52-3.43s-1.78.49-1.73,1.64Z"/></g><path class="cls-2" d="M41.3,338c0,.17.9.37,1.75,1.05s1.24,1.47,1.42,1.42,0-1.09-1-1.9S41.28,337.79,41.3,338Z"/><path class="cls-2" d="M37.13,339c-.07.17.7.56,1.24,1.38s.63,1.63.81,1.65.43-1-.26-2S37.15,338.85,37.13,339Z"/><path class="cls-2" d="M34.32,343.25c.16.06.52-.79.16-1.81s-1.18-1.51-1.27-1.37.38.72.66,1.56S34.13,343.21,34.32,343.25Z"/><path class="cls-2" d="M42.15,333.77c.06.17.94,0,2,.23s1.82.61,1.93.47-.59-.86-1.82-1.08S42.07,333.62,42.15,333.77Z"/><path class="cls-2" d="M43.57,329.62a3.8,3.8,0,0,0,1.9.22,8.85,8.85,0,0,0,2.06-.33,9.48,9.48,0,0,0,1.16-.41,2.7,2.7,0,0,0,.63-.35.75.75,0,0,0,.2-.93,1,1,0,0,0-.77-.5,2.44,2.44,0,0,0-.72,0,7.46,7.46,0,0,0-1.23.23,7.08,7.08,0,0,0-1.89.88c-1,.66-1.35,1.28-1.29,1.32s.57-.43,1.54-1a8.16,8.16,0,0,1,1.81-.69,7.85,7.85,0,0,1,1.13-.18c.42-.05.76,0,.84.17s0,.09-.07.2a1.6,1.6,0,0,1-.46.25,8.44,8.44,0,0,1-1.07.42,11.23,11.23,0,0,1-1.92.44A12.27,12.27,0,0,0,43.57,329.62Z"/><path class="cls-2" d="M43.78,329.9a2.8,2.8,0,0,0,.71-1.68,5.62,5.62,0,0,0,0-2,5.21,5.21,0,0,0-.35-1.15A1.58,1.58,0,0,0,43,324a.91.91,0,0,0-.86.4,2.44,2.44,0,0,0-.27.64,3.65,3.65,0,0,0-.15,1.21,4,4,0,0,0,.59,2c.62,1,1.37,1.33,1.4,1.27a13.69,13.69,0,0,1-1-1.47,4,4,0,0,1-.39-1.76,3.46,3.46,0,0,1,.16-1c.1-.37.29-.66.44-.6s.47.35.59.67a6.68,6.68,0,0,1,.36,1,6.44,6.44,0,0,1,.15,1.84C44,329.23,43.68,329.86,43.78,329.9Z"/><path d="M121.11,165.19,61.52,167.1S47.47,260.89,47.86,267.41l-8.66,68,25.2.88s4-22.06,6.73-37.16c1.84-10,5.2-24.78,6.11-33.17s15.65-67,15.65-67-1.09,68-1.06,70.8-2.92,66.46-2.92,66.46h25c1.29-11.49,4.36-57.47,5-66.76,1.2-16.78,5-64.18,5.51-76.29S121.11,165.19,121.11,165.19Z"/><path class="cls-3" d="M117.19,165.65a5.44,5.44,0,0,1-.22-2.14,5.36,5.36,0,0,1,.22-2.13,5.48,5.48,0,0,1,.21,2.13A5.55,5.55,0,0,1,117.19,165.65Z"/><path class="cls-3" d="M119.66,166.78a5.7,5.7,0,0,1-.24-2.74,5.52,5.52,0,0,1,.69-2.66,20.32,20.32,0,0,1-.26,2.69A20.22,20.22,0,0,1,119.66,166.78Z"/><path class="cls-3" d="M97.4,162.31a2.3,2.3,0,0,0-1.26.7,1.76,1.76,0,0,0-.41,1.42,1.64,1.64,0,0,0,2.85.54,1.79,1.79,0,0,0,.14-1.47,2.21,2.21,0,0,0-.92-1.11s.17,0,.42.11a1.77,1.77,0,0,1,.79.89,2,2,0,0,1-.09,1.79,2,2,0,0,1-3.59-.69,2,2,0,0,1,.58-1.68,1.78,1.78,0,0,1,1.06-.55C97.25,162.23,97.4,162.29,97.4,162.31Z"/><path class="cls-3" d="M69.93,265.8a53.06,53.06,0,0,1-6.38-2.39,53.49,53.49,0,0,1-6.22-2.79A54.52,54.52,0,0,1,63.71,263,52.47,52.47,0,0,1,69.93,265.8Z"/><path class="cls-5" d="M63.49,41,69,75.27c1,6.4,5.2,12.59,15.24,10.48h0c8.58-2.48,7.94-8.65,6.83-16.25h0s9.43-2.46,8.58-12c-.4-4.64-2-14.12-3.59-22.68A17.93,17.93,0,0,0,76.66,20.16l-.93.09C65.82,21.83,61.63,31.14,63.49,41Z"/><path class="cls-6" d="M91.11,69.5a23.26,23.26,0,0,1-12.85-2.44S82,74.19,91.5,72.37Z"/><path d="M94.22,43.16A1.37,1.37,0,0,1,93,44.67a1.31,1.31,0,0,1-1.53-1.09,1.38,1.38,0,0,1,1.18-1.52A1.32,1.32,0,0,1,94.22,43.16Z"/><path d="M94.52,39.68c-.15.2-1.27-.47-2.74-.32s-2.48,1-2.66.84.06-.41.49-.8a3.79,3.79,0,0,1,2.11-.89,3.61,3.61,0,0,1,2.2.47C94.41,39.28,94.59,39.59,94.52,39.68Z"/><path d="M80.81,45.28a1.37,1.37,0,0,1-1.18,1.51A1.31,1.31,0,0,1,78.1,45.7a1.37,1.37,0,0,1,1.18-1.51A1.31,1.31,0,0,1,80.81,45.28Z"/><path d="M80.35,41.41c-.15.19-1.27-.47-2.74-.32s-2.48,1-2.66.83.06-.41.49-.8a3.72,3.72,0,0,1,2.11-.88,3.61,3.61,0,0,1,2.2.47C80.24,41,80.42,41.32,80.35,41.41Z"/><path d="M86.51,51.79a10.35,10.35,0,0,1,2.35-.67c.37-.07.72-.18.76-.45a2,2,0,0,0-.36-1.09c-.45-.87-.91-1.79-1.4-2.75-2-3.92-3.41-7.16-3.25-7.24a51.11,51.11,0,0,1,3.82,7c.47,1,.93,1.89,1.36,2.78a2.23,2.23,0,0,1,.34,1.45.93.93,0,0,1-.56.61,2.64,2.64,0,0,1-.63.16A9.07,9.07,0,0,1,86.51,51.79Z"/><path d="M79.87,35.6c-.1.42-1.59.37-3.3.76s-3.06,1-3.32.65c-.12-.16.08-.56.61-1a5.54,5.54,0,0,1,2.4-1.12,5.61,5.61,0,0,1,2.64,0C79.56,35.12,79.91,35.4,79.87,35.6Z"/><path d="M93.55,35.47c-.23.36-1.28.12-2.5.22s-2.23.46-2.5.13c-.12-.16,0-.51.43-.87a3.63,3.63,0,0,1,4-.28C93.47,35,93.65,35.3,93.55,35.47Z"/><path class="cls-5" d="M65,48c-.17-.06-6.78-1.29-5.91,5.24s7.25,4.31,7.23,4.12S65,48,65,48Z"/><path class="cls-6" d="M64,55.18s-.1.09-.28.2a1.12,1.12,0,0,1-.85.13,2.83,2.83,0,0,1-1.64-2.35,3.7,3.7,0,0,1,.1-1.67,1.35,1.35,0,0,1,.74-1,.58.58,0,0,1,.71.23c.12.17.09.3.13.31s.12-.13,0-.39a.8.8,0,0,0-.32-.38.88.88,0,0,0-.65-.08,1.61,1.61,0,0,0-1.05,1.17,3.86,3.86,0,0,0-.15,1.87,3,3,0,0,0,2,2.6,1.23,1.23,0,0,0,1-.31C64,55.33,64,55.18,64,55.18Z"/><path class="cls-6" d="M87.81,55.77a6.49,6.49,0,0,1-.49,1.8A2.23,2.23,0,0,1,86,58.79a2,2,0,0,1-1.83-.56,3.13,3.13,0,0,1-.84-1.76c-.1-.6,0-1.36.59-1.55a1.59,1.59,0,0,1,.75,0l3.33.6"/><path d="M87.11,58.56a4.74,4.74,0,0,1-1.68.14A2.38,2.38,0,0,1,84,57.83a2.51,2.51,0,0,1-.46-2,2.26,2.26,0,0,1,.17-.52c.09-.15.07-.14.21-.15s.35.06.53.09l.55.1c.71.13,1.36.24,1.9.32a5.92,5.92,0,0,0,1.78.16,5.74,5.74,0,0,0-1.7-.55c-.54-.13-1.17-.28-1.88-.43l-.54-.12a4.21,4.21,0,0,0-.61-.11.74.74,0,0,0-.46.1,1.05,1.05,0,0,0-.28.34,2.56,2.56,0,0,0-.22.66,2.89,2.89,0,0,0,.61,2.43,2.66,2.66,0,0,0,1.82.94,2.58,2.58,0,0,0,1.34-.23C87,58.72,87.13,58.58,87.11,58.56Z"/><path class="cls-5" d="M111.46,41.67l1.55-.41,24.13,23.45,19.54,2.35s-.2-5.91-7.55-13.45c-6.56-6.72-21.91-14.75-27.11-18.87a8,8,0,0,0-2.25-1.34Z"/><path class="cls-5" d="M111.45,30.51,109,29.82l-5.82-2.76-6.62,2.46s.15,2.27,1.89,1.65L91.5,33.46s.56,1.64.88,1.75a38.59,38.59,0,0,1-4.08.48s0,2.23,4.15,2.19,5.76-.75,5.76-.75l3.33.89-.13,2-4.54-.07.21,2.54a53.24,53.24,0,0,0,5.84.89s7,.11,8.9-.81,4.32-2.23,4.32-2.23l3.63-6.92Z"/><path class="cls-6" d="M105.2,31.69c0,.06-.39-.13-1-.41A16,16,0,0,1,101.85,30h.3l-.27.17a6.74,6.74,0,0,1-2.73,1c-.74.1-1.2,0-1.2,0a15.3,15.3,0,0,0,3.66-1.4l.25-.16.15-.1.15.1c.81.57,1.66,1,2.22,1.36S105.25,31.64,105.2,31.69Z"/><path class="cls-6" d="M103.07,35.21s-.45.16-1.12-.12-1.42-1-2.37-1.4l.24,0a10.52,10.52,0,0,1-1.33.76,9.57,9.57,0,0,1-3.75.92,3.42,3.42,0,0,1-1.58-.17A17,17,0,0,0,98.26,34a10.22,10.22,0,0,0,1.28-.71l.13-.08.11.06c1.08.55,1.71,1.28,2.3,1.58S103.07,35.14,103.07,35.21Z"/><path class="cls-6" d="M109.27,37.39c0,.08-.51-.08-1.3-.06a5.43,5.43,0,0,0-2.88.86,5.19,5.19,0,0,0-1.43,1.41l-.06.09-.09,0a8.09,8.09,0,0,1-2.37.29,7.7,7.7,0,0,1,2.28-.74l-.15.11a4.66,4.66,0,0,1,1.53-1.61A5,5,0,0,1,108,37C108.84,37.05,109.3,37.34,109.27,37.39Z"/><path class="cls-7" d="M119.77,33.4l-8.32-2.89L109,29.82l-5.82-2.76-6.62,2.46s.15,2.27,1.89,1.65L91.5,33.46s.56,1.64.88,1.75a38.59,38.59,0,0,1-4.08.48s0,2.23,4.15,2.19,5.76-.75,5.76-.75l3.33.89-.13,2-4.32-.19.45,2.79a43.46,43.46,0,0,0,5.38.76s7,.11,8.9-.81,4.32-2.23,4.32-2.23"/><path class="cls-6" d="M116.14,40.32a1.53,1.53,0,0,1-.2.13l-.63.36-2.42,1.31a7.79,7.79,0,0,1-1.83.82,17.23,17.23,0,0,1-2.35.38c-1.7.17-3.64.24-5.79.24h0l-2.61-.26a16.81,16.81,0,0,1-2.86-.49l-.1,0,0-.13c-.14-.87-.29-1.82-.45-2.8l-.05-.27h.28l4.32.17-.26.23c0-.62.09-1.3.13-2l.19.25-3.34-.88h.17a17.57,17.57,0,0,1-5,.76A12.34,12.34,0,0,1,90.67,38a3.42,3.42,0,0,1-2.37-1.44,2,2,0,0,1-.26-.86v-.24l.25,0c1-.09,2.07-.18,3.08-.29l.74-.1.16,0h0s0,0,0,.05a.21.21,0,0,0-.06.22c0,.09.18.21.14.17a.55.55,0,0,1-.16-.11,1.38,1.38,0,0,1-.27-.37,11.73,11.73,0,0,1-.6-1.43l-.09-.24.25-.08,7-2.28.16.46a1.86,1.86,0,0,1-.88.1,1.32,1.32,0,0,1-.78-.45,2.73,2.73,0,0,1-.56-1.51l0-.18.18-.06,6.63-2.44.08,0,.08,0,5.81,2.79h0l2.43.7,2.12.75,3.36,1.21,2.11.78a4.12,4.12,0,0,1,.72.31,7,7,0,0,1-.75-.21l-2.14-.69-3.39-1.13-2.12-.71L108.93,30h0l-5.84-2.73h.17l-6.62,2.49.16-.24a2.24,2.24,0,0,0,.45,1.22,1,1,0,0,0,1.12.21l.16.46-6.93,2.3.16-.32a8.84,8.84,0,0,0,.57,1.34,1.21,1.21,0,0,0,.16.25h0a.33.33,0,0,0-.06.12h0c.1-.26,0-.07.07-.12l.07,0a.27.27,0,0,1,.09.15.26.26,0,0,1-.07.24l-.08.06-.09,0-.21,0-.77.1c-1,.12-2,.21-3.09.3l.23-.25a1.43,1.43,0,0,0,.2.59,2.87,2.87,0,0,0,2,1.19,11.13,11.13,0,0,0,2.52.12,17.62,17.62,0,0,0,4.81-.7l.1,0,.07,0,3.33.9.2,0,0,.2c0,.69-.09,1.37-.13,2l0,.24h-.23L97.08,40l.24-.27c.15,1,.3,1.93.43,2.8l-.12-.16a20.06,20.06,0,0,0,2.72.47l2.59.29h0c2.13,0,4.06,0,5.75-.16a16.88,16.88,0,0,0,2.32-.32,8,8,0,0,0,1.8-.76l2.46-1.22.65-.31Z"/><path class="cls-6" d="M107.78,32.79a7.79,7.79,0,0,1-2.57,2.61A7.61,7.61,0,0,1,101.9,37c-.06-.14,1.4-.84,3-2S107.66,32.68,107.78,32.79Z"/><path class="cls-8" d="M156.51,66.34l-19.37-1.63L114.3,73.4l-5,3.06,7.15,24.4S152.21,79.77,153.73,78A13,13,0,0,0,156.51,66.34Z"/><path class="cls-8" d="M53.11,84.29l-6.66,4.13L61.83,149,59,183.82c4,3.46,14,6.44,33,5.36s31.69-9.32,31.69-9.32L121.94,144l-4.33-40.52-4.89-27.7L98.08,76.8l-5.71-3.38L89.81,74.7l-3.28,9.09L78,77.62,68,72.8l-3.65,6.82Z"/><path class="cls-2" d="M112.72,82.78a7.91,7.91,0,0,1,.52,1.35c.32.88.73,2.16,1.2,3.76a123.46,123.46,0,0,1,3,12.65A124.16,124.16,0,0,1,119,113.45c.11,1.66.16,3,.17,3.93a6.83,6.83,0,0,1,0,1.45,9.09,9.09,0,0,1-.17-1.44c-.09-1-.2-2.33-.34-3.91-.31-3.31-.84-7.86-1.73-12.85s-1.95-9.44-2.8-12.64c-.41-1.53-.76-2.81-1-3.8A6.48,6.48,0,0,1,112.72,82.78Z"/><path class="cls-2" d="M83.8,83.27a4,4,0,0,1-1.38-.51,8.79,8.79,0,0,1-3-2.59l.36-.1A34.27,34.27,0,0,1,78,88.82l-.12.32L77.58,89l-.7-.49c-3.44-2.37-6.55-4.55-8.77-6.14l-2.63-1.91a5.28,5.28,0,0,1-.92-.76,5.13,5.13,0,0,1,1,.59L68.31,82c2.29,1.51,5.42,3.64,8.86,6l.71.49-.4.13A36.63,36.63,0,0,0,79.36,80l0-.54.31.44a9.33,9.33,0,0,0,2.81,2.63C83.33,83,83.82,83.22,83.8,83.27Z"/><path class="cls-2" d="M97.49,77.91a30.49,30.49,0,0,1-3.25,3.7l-.18.19-.18-.21a23.51,23.51,0,0,0-2.17-2.2c-.41-.36-.83-.7-1.24-1l-.61-.44a.69.69,0,0,0-.12-.06s0,0-.09.14c-.33.85-.64,1.65-.93,2.38a10.75,10.75,0,0,1-1,2.16,10.21,10.21,0,0,1,.64-2.28c.26-.75.54-1.56.83-2.43a.72.72,0,0,1,.35-.42.64.64,0,0,1,.58.09l.64.46c.43.31.86.66,1.28,1a18,18,0,0,1,2.2,2.29l-.35,0A33.52,33.52,0,0,1,97.49,77.91Z"/><path class="cls-3" d="M93.53,186.6a41.43,41.43,0,1,1-9.85,78.27h0a41.42,41.42,0,0,1,9.85-78.27Zm14.77,78.69a38.61,38.61,0,1,0-23.45-2.93A38.61,38.61,0,0,0,108.3,265.29Z"/><path class="cls-3" d="M101.11,270.75A43.62,43.62,0,1,1,116,268.09,43.19,43.19,0,0,1,101.11,270.75Zm.08-80.12A36.67,36.67,0,0,0,85.7,260.54a36.35,36.35,0,0,0,22.23,2.78h0a36.63,36.63,0,0,0,27.67-48.57,36.74,36.74,0,0,0-34.41-24.12Z"/><path class="cls-3" d="M.39,186.83l.37-.9c.78-1.93,2.5-3.06,3.84-2.51l60.54,24.63c.3.12.4.57.23,1l-2.58,6.34c-.18.43-.56.68-.86.56L1.39,191.32C.05,190.77-.4,188.76.39,186.83Z"/><path class="cls-5" d="M56.93,117.12l-7.28,24.09,3.65,49.1-10.74,1.35s-12.3-41.84-11.08-49.35,6.2-29.57,6.2-29.57Z"/><path class="cls-5" d="M53.28,190l5,8.54,3.12,8-4.72-1.85s-2,9.65-2.81,9.91-3.06-.53-2.83-2.38a3.1,3.1,0,0,1-2.55.84c-1.42-.3-1.75-1.21-1.6-3,0,0-1.65,1.34-2.64.5a3,3,0,0,1-.89-2.29s-2.15.18-2.45-.94a18.44,18.44,0,0,1-.12-5.51c.25-1.22,1.29-6.18,1.29-6.18l.48-4Z"/><path class="cls-6" d="M52.1,206.63a9.1,9.1,0,0,0-.75,2.74A9.35,9.35,0,0,0,51,212.2a9.22,9.22,0,0,0,.75-2.74A9.35,9.35,0,0,0,52.1,206.63Z"/><path class="cls-6" d="M47.72,205.51a11.69,11.69,0,0,0-.9,4.46,5.94,5.94,0,0,0,.67-2.18A6.23,6.23,0,0,0,47.72,205.51Z"/><path class="cls-6" d="M44.06,204.49a5.82,5.82,0,0,0-.39,1.89c-.17,1-.44,1.84-.31,1.9a3.12,3.12,0,0,0,.75-1.83A3.53,3.53,0,0,0,44.06,204.49Z"/><path class="cls-6" d="M57.05,201.88a10.35,10.35,0,0,0-.8,2.68,10.68,10.68,0,0,0-.51,2.75,13.38,13.38,0,0,0,1.31-5.43Z"/><path class="cls-8" d="M30.89,158.54c0-.82-3.36-12.27-2.34-18.19s13.22-46,14.86-48.86a12.46,12.46,0,0,1,5.21-4.42,19.9,19.9,0,0,1,9.71,12.18c2.46,8.79,2.46,19.83,2.46,19.83L51,143.41l1.17,13.82Z"/><path class="cls-2" d="M60.16,118.28c-.1,0,.09-1.8,0-4.68a41.14,41.14,0,0,0-.49-5,45.37,45.37,0,0,0-1.41-6,45.24,45.24,0,0,0-2.31-5.73,40.79,40.79,0,0,0-2.5-4.4c-1.58-2.41-2.76-3.76-2.69-3.82a5.38,5.38,0,0,1,.88.9,29,29,0,0,1,2.12,2.72,36.39,36.39,0,0,1,2.62,4.38,41.66,41.66,0,0,1,2.37,5.8,41.93,41.93,0,0,1,1.4,6.1,38.44,38.44,0,0,1,.38,5.09,27.34,27.34,0,0,1-.17,3.44A6.59,6.59,0,0,1,60.16,118.28Z"/><path class="cls-2" d="M59.53,123.37a18,18,0,0,1-1,3c-.71,1.84-1.78,4.35-3,7.09l-3.16,7A22.57,22.57,0,0,1,51,143.41a17.68,17.68,0,0,1,1-3c.71-1.85,1.78-4.36,3-7.1l3.16-7A22.57,22.57,0,0,1,59.53,123.37Z"/><path class="cls-2" d="M51.54,144.35a45.71,45.71,0,0,0-6.72-2.92,45.15,45.15,0,0,0-7.22-1.27,6.51,6.51,0,0,1,2.18-.12,21.59,21.59,0,0,1,10,3A7,7,0,0,1,51.54,144.35Z"/><path class="cls-1" d="M115.4,213.26c.09.11-7.79,7-17.61,15.41s-17.85,15.12-17.94,15,7.79-7,17.61-15.41S115.31,213.15,115.4,213.26Z"/><path class="cls-1" d="M125.54,213.26c.1.11-6.54,6-14.83,13.09s-15.07,12.81-15.17,12.7,6.55-6,14.83-13.09S125.45,213.15,125.54,213.26Z"/><path class="cls-2" d="M140.47,227.31s0-.22-.05-.64-.07-1.06-.12-1.86q0-.62-.09-1.38c-.05-.5-.16-1-.25-1.64s-.19-1.23-.3-1.91a21.91,21.91,0,0,0-.51-2.14,37.71,37.71,0,0,0-4.36-10.43,39.14,39.14,0,0,0-9.95-11.1L123.15,195c-.6-.39-1.22-.74-1.84-1.13s-1.23-.79-1.91-1.1l-2-1-1-.49-1.09-.4-2.2-.8c-.75-.24-1.53-.4-2.3-.61a18.53,18.53,0,0,0-2.37-.54,36.24,36.24,0,0,0-4.94-.57c-.84,0-1.69-.11-2.55-.1l-2.58.14c-.44,0-.88,0-1.31.08l-1.3.2c-.87.15-1.76.25-2.63.43a41.21,41.21,0,0,0-5.21,1.53,39.37,39.37,0,0,0-5.09,2.24c-.83.44-1.62,1-2.44,1.45-.4.26-.82.47-1.2.76l-1.15.86a43.72,43.72,0,0,0-4.43,3.77,42.83,42.83,0,0,0-3.83,4.53l-.9,1.2L68,206.71l-.78,1.3a10,10,0,0,0-.73,1.33l-1.32,2.75c-.36,1-.71,1.93-1.06,2.89a38.7,38.7,0,0,0,0,24.65c.36,1,.71,1.93,1.06,2.89s.89,1.84,1.33,2.76l.33.68.4.65L68,247.9l.79,1.29.9,1.2a45,45,0,0,0,3.82,4.53A45.91,45.91,0,0,0,78,258.68l1.15.86c.39.29.81.51,1.21.77.82.48,1.61,1,2.43,1.45a42.93,42.93,0,0,0,10.31,3.77c.87.18,1.76.28,2.63.43l1.3.2c.44,0,.87,0,1.31.08l2.58.14c.86,0,1.71-.07,2.55-.1a36.24,36.24,0,0,0,4.94-.57,20.4,20.4,0,0,0,2.37-.54c.77-.21,1.56-.37,2.3-.62l2.2-.8,1.09-.39,1-.49,2-1a21.06,21.06,0,0,0,1.91-1.1c.62-.38,1.24-.74,1.84-1.13l1.69-1.26a38.73,38.73,0,0,0,9.95-11.1,37.66,37.66,0,0,0,4.36-10.42c.17-.76.43-1.45.51-2.14s.21-1.32.3-1.91.2-1.14.25-1.65.06-1,.09-1.37q.07-1.22.12-1.86c0-.43.05-.64.05-.64s0,.21,0,.64,0,1.06-.07,1.87q0,.62-.06,1.38c0,.5-.14,1.05-.22,1.65l-.28,1.92c-.08.69-.33,1.4-.5,2.16a36.82,36.82,0,0,1-4.3,10.52,39.11,39.11,0,0,1-10,11.25c-.56.42-1.13.84-1.7,1.28s-1.23.75-1.85,1.14-1.24.81-1.92,1.12l-2,1-1,.5-1.1.4-2.22.82c-.75.25-1.54.42-2.33.63a20.75,20.75,0,0,1-2.39.55,35.43,35.43,0,0,1-5,.59c-.85,0-1.71.12-2.58.11l-2.62-.13c-.43,0-.88,0-1.32-.08l-1.32-.2c-.88-.15-1.77-.25-2.66-.43a41,41,0,0,1-5.27-1.54,40.51,40.51,0,0,1-5.17-2.26c-.83-.45-1.63-1-2.46-1.47a13.26,13.26,0,0,1-1.23-.77l-1.16-.87a43.51,43.51,0,0,1-4.49-3.81,43.84,43.84,0,0,1-3.88-4.58l-.92-1.22-.79-1.3-.8-1.31-.4-.66-.34-.69-1.34-2.79-1.08-2.93a39.13,39.13,0,0,1,0-25c.35-1,.71-2,1.07-2.93l1.35-2.79a9.76,9.76,0,0,1,.73-1.35l.8-1.31.8-1.3.91-1.22a45.1,45.1,0,0,1,3.88-4.58,44.79,44.79,0,0,1,4.49-3.81l1.17-.87c.38-.29.81-.51,1.22-.77.83-.49,1.63-1,2.46-1.46a39.15,39.15,0,0,1,5.17-2.26A41,41,0,0,1,93,188.63c.89-.18,1.78-.28,2.66-.43L97,188c.44-.05.88-.05,1.32-.08l2.62-.13c.86,0,1.72.07,2.58.11a35.43,35.43,0,0,1,5,.59,17.62,17.62,0,0,1,2.39.55c.78.21,1.57.37,2.33.63l2.22.81,1.09.41,1.05.49,2,1c.69.32,1.29.76,1.93,1.12s1.25.75,1.85,1.15l1.7,1.28a39.08,39.08,0,0,1,10,11.24,37,37,0,0,1,4.3,10.53,22.1,22.1,0,0,1,.5,2.16c.1.68.19,1.32.28,1.92s.18,1.15.22,1.65,0,1,.06,1.38c0,.81,0,1.43.07,1.87S140.47,227.31,140.47,227.31Z"/><path class="cls-2" d="M126,248.18a10.92,10.92,0,0,1,1-1.34,36.88,36.88,0,0,0,2.5-3.75,34.51,34.51,0,0,0,3-28.62,40.05,40.05,0,0,0-1.67-4.19,11,11,0,0,1-.69-1.51s.1.11.25.35.37.59.62,1.07a30.42,30.42,0,0,1,1.83,4.16,33.4,33.4,0,0,1-3,28.93,30.52,30.52,0,0,1-2.66,3.68c-.34.42-.64.72-.83.92S126,248.19,126,248.18Z"/><path class="cls-2" d="M123.89,251.77c.07.13-.24.44-.69.69s-.88.37-1,.25.24-.44.69-.7S123.82,251.65,123.89,251.77Z"/><path class="cls-1" d="M72.33,244.14a2,2,0,0,1-.24-.47c-.14-.32-.36-.78-.59-1.39a35.7,35.7,0,0,1-1.58-5.34,38.51,38.51,0,0,1,9.25-34.27,36.12,36.12,0,0,1,4.06-3.81c.5-.42.93-.7,1.21-.91s.43-.3.45-.28-.54.49-1.53,1.35a41.16,41.16,0,0,0-3.92,3.9,39.36,39.36,0,0,0-9.16,33.94,42,42,0,0,0,1.41,5.35C72.11,243.45,72.37,244.13,72.33,244.14Z"/><path class="cls-1" d="M95.54,195.13a5.57,5.57,0,0,1-2.31.45,5.57,5.57,0,0,1-2.36-.06,5.36,5.36,0,0,1,2.31-.46A5.28,5.28,0,0,1,95.54,195.13Z"/></g></g></svg>